<?xml version="1.0" standalone="no"?>
<!DOCTYPE svg PUBLIC "-//W3C//DTD SVG 20010904//EN"
 "http://www.w3.org/TR/2001/REC-SVG-20010904/DTD/svg10.dtd">
<svg version="1.0" xmlns="http://www.w3.org/2000/svg"
 width="600.000000pt" height="600.000000pt" viewBox="0 0 600.000000 600.000000"
 preserveAspectRatio="xMidYMid meet">
<metadata>
Created by potrace 1.11, written by Peter Selinger 2001-2013
</metadata>
<g transform="translate(0.000000,600.000000) scale(0.100000,-0.100000)"
fill="#000000" stroke="none">
<path d="M5205 4303 c-204 -18 -502 -84 -645 -143 -282 -116 -429 -199 -641
-363 -162 -124 -422 -377 -542 -527 -42 -52 -90 -111 -107 -130 -30 -34 -174
-231 -293 -400 -32 -47 -63 -89 -67 -94 -5 -5 -23 2 -42 14 -44 31 -188 172
-188 185 0 6 21 40 48 76 91 125 224 418 279 613 65 233 96 421 91 556 -5 122
-20 162 -74 187 -67 33 -168 -15 -305 -144 -109 -103 -189 -210 -261 -350 -90
-176 -139 -332 -174 -558 -17 -115 -25 -469 -10 -512 6 -20 0 -26 -62 -57
-248 -125 -614 -189 -902 -157 -90 10 -231 37 -280 55 -17 6 -16 7 -181 -269
-62 -104 -136 -226 -164 -270 -70 -108 -188 -315 -183 -320 2 -3 68 -10 147
-16 256 -22 550 14 806 97 132 42 374 162 505 249 101 67 281 219 337 285 19
22 38 40 42 40 5 0 18 -28 31 -62 58 -164 206 -416 308 -529 35 -38 67 -69 70
-69 10 0 51 68 127 210 159 295 321 541 481 726 143 167 152 176 321 315 186
151 361 247 598 327 185 62 351 92 510 92 l91 0 142 233 c78 127 166 271 195
319 28 48 94 155 145 238 50 83 92 153 92 155 0 5 -180 4 -245 -2z m-2429
-582 c72 -44 103 -196 70 -345 -24 -104 -72 -195 -161 -301 -41 -49 -75 -93
-75 -97 0 -5 -4 -8 -9 -8 -11 0 -60 126 -78 200 -40 171 14 415 117 522 52 54
84 61 136 29z"/>
</g>
</svg>
